<svg width="1200" height="1200" viewBox="0 0 1200 1200" fill="none" xmlns="http://www.w3.org/2000/svg">
  <defs>
    <linearGradient id="ring" x1="180" y1="160" x2="1010" y2="1040" gradientUnits="userSpaceOnUse">
      <stop stop-color="#8AD9E7"/>
      <stop offset="1" stop-color="#5CBFD2"/>
    </linearGradient>
    <linearGradient id="bodyBottom" x1="430" y1="540" x2="760" y2="1010" gradientUnits="userSpaceOnUse">
      <stop stop-color="#F8D25A"/>
      <stop offset="1" stop-color="#D79A17"/>
    </linearGradient>
    <linearGradient id="bodyTop" x1="355" y1="315" x2="853" y2="708" gradientUnits="userSpaceOnUse">
      <stop stop-color="#58B7CF"/>
      <stop offset="1" stop-color="#256B8B"/>
    </linearGradient>
    <linearGradient id="fin" x1="248" y1="645" x2="333" y2="790" gradientUnits="userSpaceOnUse">
      <stop stop-color="#FFD2A7"/>
      <stop offset="1" stop-color="#F4A46E"/>
    </linearGradient>
    <filter id="shadow" x="140" y="122" width="924" height="936" filterUnits="userSpaceOnUse" color-interpolation-filters="sRGB">
      <feDropShadow dx="0" dy="20" stdDeviation="22" flood-color="#9FC8D2" flood-opacity="0.38"/>
    </filter>
    <style>
      .wordmark { font-family: 'Trebuchet MS', 'Avenir Next', 'Segoe UI', sans-serif; font-weight: 800; }
    </style>
  </defs>

  <rect width="1200" height="1200" fill="#F7FBFD"/>
  <g filter="url(#shadow)">
    <circle cx="600" cy="500" r="382" fill="#FFFFFF"/>
    <circle cx="600" cy="500" r="388" stroke="url(#ring)" stroke-width="22"/>
  </g>

  <circle cx="600" cy="565" r="268" fill="url(#bodyBottom)" stroke="#4B365C" stroke-width="12"/>
  <path d="M344 531C344 373 458 262 618 262C780 262 873 360 873 505C873 631 779 709 616 709C454 709 344 647 344 531Z" fill="url(#bodyTop)" stroke="#4B365C" stroke-width="12"/>
  <path d="M470 302C498 242 565 206 635 209C612 260 590 291 545 325L470 302Z" fill="#F4BE8B" stroke="#4B365C" stroke-width="10"/>
  <path d="M268 602C207 626 176 685 181 754C244 740 294 717 336 661L268 602Z" fill="url(#fin)" stroke="#4B365C" stroke-width="10"/>
  <path d="M311 705C255 724 227 781 231 837C291 821 338 794 375 748L311 705Z" fill="url(#fin)" stroke="#4B365C" stroke-width="10"/>
  <path d="M873 560C934 588 969 642 968 710C907 698 861 674 826 630L873 560Z" fill="url(#fin)" stroke="#4B365C" stroke-width="10"/>

  <circle cx="459" cy="557" r="84" fill="#FFFFFF" stroke="#4B365C" stroke-width="12"/>
  <circle cx="740" cy="557" r="84" fill="#FFFFFF" stroke="#4B365C" stroke-width="12"/>
  <circle cx="479" cy="576" r="42" fill="#39284B"/>
  <circle cx="719" cy="576" r="42" fill="#39284B"/>
  <circle cx="497" cy="554" r="11" fill="#FFFFFF"/>
  <circle cx="736" cy="554" r="11" fill="#FFFFFF"/>
  <circle cx="340" cy="665" r="56" fill="#F5C8A7" opacity="0.86"/>
  <circle cx="855" cy="665" r="56" fill="#F5C8A7" opacity="0.86"/>
  <path d="M560 617C594 644 607 646 638 617" stroke="#4B365C" stroke-width="12" stroke-linecap="round"/>
  <path d="M596 621C614 622 624 629 627 647C612 650 603 648 593 638L596 621Z" fill="#F4A46E" stroke="#4B365C" stroke-width="8" stroke-linejoin="round"/>

  <g stroke="#4B365C" stroke-width="10" stroke-linecap="round">
    <path d="M522 430L509 408"/>
    <path d="M602 402L602 379"/>
    <path d="M683 425L697 403"/>
    <path d="M448 491L430 481"/>
    <path d="M758 491L776 481"/>
    <path d="M451 776L435 796"/>
    <path d="M531 842L520 868"/>
    <path d="M672 842L683 868"/>
    <path d="M750 781L767 802"/>
  </g>

  <g fill="#53B9D2" stroke="#4B365C" stroke-width="8">
    <path d="M451 277L470 242L489 281Z"/>
    <path d="M563 245L586 209L608 247Z"/>
    <path d="M679 247L704 209L725 250Z"/>
    <path d="M779 278L800 242L821 281Z"/>
    <path d="M348 835L372 867L338 879Z"/>
    <path d="M468 919L490 952L456 961Z"/>
    <path d="M712 918L739 949L706 962Z"/>
    <path d="M828 836L860 864L829 883Z"/>
  </g>

  <g fill="#C7F0F7" opacity="0.95" stroke="#97D5E2" stroke-width="6">
    <circle cx="244" cy="389" r="33"/>
    <circle cx="936" cy="409" r="25"/>
    <circle cx="237" cy="823" r="22"/>
    <circle cx="964" cy="750" r="28"/>
    <circle cx="1001" cy="880" r="18"/>
  </g>

  <path d="M170 880C253 970 385 1024 531 1039" stroke="#E49C59" stroke-width="18" stroke-linecap="round"/>
  <path d="M669 1039C815 1024 946 969 1027 882" stroke="#E49C59" stroke-width="18" stroke-linecap="round"/>
  <text x="600" y="1104" text-anchor="middle" fill="#E49C59" font-size="112" class="wordmark">Pupperfish</text>
</svg>
